<?xml version="1.0" standalone="no"?>
<!DOCTYPE svg PUBLIC "-//W3C//DTD SVG 20010904//EN"
 "http://www.w3.org/TR/2001/REC-SVG-20010904/DTD/svg10.dtd">
<svg version="1.0" xmlns="http://www.w3.org/2000/svg"
 width="1080.000000pt" height="1080.000000pt" viewBox="0 0 1080.000000 1080.000000"
 preserveAspectRatio="xMidYMid meet">
<metadata>
Created by potrace 1.11, written by Peter Selinger 2001-2013
</metadata>
<g transform="translate(0.000000,1080.000000) scale(0.100000,-0.100000)"
fill="#000000" stroke="none">
<path d="M2324 9887 c-74 -29 -112 -86 -144 -215 -49 -200 -46 -335 10 -370
31 -19 84 -25 243 -25 81 0 150 -3 152 -7 4 -6 -11 -108 -30 -200 -3 -14 -12
-63 -20 -110 -8 -47 -17 -94 -19 -105 -2 -11 -7 -42 -11 -70 -5 -27 -9 -52
-10 -55 0 -3 -5 -27 -10 -55 -4 -27 -9 -54 -11 -60 -2 -11 -32 -181 -40 -230
-3 -16 -11 -66 -19 -110 -8 -44 -17 -93 -20 -110 -12 -72 -47 -272 -51 -295
-3 -14 -20 -113 -39 -220 -18 -107 -36 -206 -38 -220 -3 -14 -8 -43 -12 -65
-4 -22 -9 -49 -11 -60 -3 -11 -11 -58 -19 -105 -7 -47 -23 -137 -35 -200 -12
-63 -23 -129 -25 -145 -2 -17 -10 -67 -19 -110 -13 -68 -54 -300 -71 -400 -3
-16 -7 -40 -9 -51 -2 -12 -7 -37 -10 -55 -3 -19 -10 -58 -16 -88 -28 -146 -3
-209 88 -228 52 -11 486 -6 528 6 87 24 129 98 150 261 3 25 7 51 10 59 3 8 7
30 10 50 3 20 10 62 15 93 6 32 12 69 14 83 4 22 15 83 31 172 3 16 7 39 9 52
2 13 5 24 7 25 2 0 17 10 33 22 133 91 346 118 481 61 76 -32 152 -97 202
-172 21 -33 79 -139 128 -235 48 -96 105 -200 125 -230 92 -138 228 -228 372
-247 29 -4 150 -6 269 -6 200 1 220 2 260 22 24 11 52 35 64 53 43 68 83 233
89 368 7 143 -28 176 -189 179 -101 2 -146 11 -192 40 -34 21 -93 90 -116 136
-138 279 -205 389 -273 448 -42 37 -137 87 -202 107 -67 21 -211 29 -272 16
-34 -8 -35 -8 259 189 146 98 360 242 475 320 116 78 284 192 375 253 l165
111 75 2 c93 3 126 13 168 52 76 73 130 341 88 442 -29 69 -10 67 -773 67
l-682 1 -48 -24 c-65 -33 -99 -89 -123 -210 -38 -185 -32 -262 20 -301 28 -20
60 -25 169 -27 l74 -1 -55 -37 c-30 -21 -88 -62 -129 -91 -64 -46 -320 -226
-618 -437 -47 -32 -82 -55 -79 -49 3 5 9 25 12 45 3 20 19 115 36 210 17 96
42 239 56 319 13 80 33 190 44 245 10 55 21 120 25 145 3 25 8 52 10 60 4 14
51 280 62 345 2 17 6 41 9 55 3 14 6 34 8 45 2 11 13 76 25 145 12 69 23 134
25 145 2 11 11 58 20 105 8 47 18 101 21 120 10 60 17 104 22 125 2 11 7 48
10 83 6 72 -7 113 -46 139 -24 17 -63 18 -526 20 -364 1 -508 -2 -531 -10z"/>
<path d="M7218 8786 c-1 -2 -36 -6 -76 -10 -454 -38 -892 -304 -1155 -699
-142 -212 -224 -428 -282 -737 -14 -75 -14 -384 1 -465 72 -410 290 -705 649
-880 120 -58 234 -95 378 -121 135 -25 519 -24 650 2 12 2 49 9 82 14 222 39
434 98 640 179 77 31 110 45 211 92 108 51 161 141 150 254 -8 82 -36 175 -80
265 -40 84 -69 120 -118 150 -54 33 -95 26 -230 -39 -224 -107 -479 -197 -616
-217 -20 -3 -44 -7 -52 -10 -52 -18 -349 -26 -423 -11 -222 43 -380 194 -432
412 -15 63 -23 283 -11 303 2 4 7 27 10 52 23 175 123 381 251 519 154 166
342 249 583 256 209 7 338 -45 431 -174 55 -77 69 -157 57 -331 -8 -115 62
-150 305 -155 303 -6 433 53 459 208 4 29 15 90 24 137 9 47 18 101 21 120 3
19 12 71 21 115 8 44 17 96 20 115 3 19 12 73 20 120 19 100 21 114 28 160 3
19 10 60 17 90 6 30 13 83 16 118 5 54 2 67 -18 97 -39 57 -88 69 -289 69
-281 0 -369 -52 -399 -234 -6 -36 -14 -80 -17 -99 l-5 -34 -27 54 c-34 68
-129 164 -204 207 -66 37 -186 79 -267 94 -52 9 -315 20 -323 14z"/>
<path d="M3995 4938 c-77 -27 -125 -112 -158 -281 -27 -134 -27 -232 -1 -275
16 -27 30 -36 84 -49 8 -2 122 -4 253 -4 l239 -1 -5 -36 c-3 -21 -24 -143 -47
-272 -22 -129 -53 -302 -67 -385 -14 -82 -27 -152 -29 -154 -2 -2 -36 30 -76
71 -62 63 -119 107 -213 165 -67 41 -187 84 -295 104 -72 14 -267 18 -375 7
-434 -43 -837 -310 -1084 -720 -106 -177 -206 -436 -237 -613 -1 -11 -5 -29
-7 -40 -5 -22 -16 -98 -22 -160 -6 -55 -6 -302 0 -345 30 -218 66 -345 142
-492 146 -284 399 -475 708 -535 88 -17 318 -22 405 -9 238 35 520 187 726
391 17 16 42 41 56 53 l26 24 -8 -39 c-5 -21 -11 -56 -15 -78 -3 -22 -10 -67
-15 -100 -4 -33 -7 -71 -6 -85 2 -14 4 -30 5 -37 1 -16 49 -63 64 -64 7 0 21
-3 32 -5 11 -3 202 -5 425 -6 457 0 456 0 510 74 75 103 125 422 79 496 -28
45 -56 50 -266 51 -123 1 -132 2 -128 20 2 10 6 36 9 57 3 22 13 75 21 119 19
101 112 628 119 675 3 19 12 71 20 115 9 44 18 96 21 115 3 19 10 60 16 90 6
30 12 64 14 75 1 11 5 34 8 50 3 17 18 98 32 180 27 152 81 459 89 505 3 14 7
41 10 60 3 19 12 71 20 115 9 44 17 92 20 108 3 15 10 53 15 85 6 31 13 73 16
92 7 44 17 99 21 125 3 11 18 99 35 195 37 218 34 198 54 304 33 173 19 237
-56 263 -45 15 -1140 17 -1184 1z m-330 -1803 c141 -27 267 -107 340 -217 37
-56 78 -138 69 -138 -3 0 0 -8 5 -17 22 -43 35 -255 20 -337 -4 -22 -9 -54
-12 -71 -20 -130 -98 -310 -186 -429 -165 -223 -394 -338 -659 -331 -126 3
-135 5 -221 45 -266 125 -342 522 -182 959 93 254 271 451 466 514 118 38 238
46 360 22z"/>
<path d="M7298 3835 c-2 -1 -36 -5 -76 -9 -527 -45 -1010 -381 -1257 -875 -65
-130 -133 -311 -150 -403 -3 -13 -13 -63 -22 -113 -25 -128 -25 -437 0 -555
71 -331 240 -585 505 -760 62 -40 140 -80 242 -123 71 -30 220 -67 345 -85
116 -16 460 -6 597 18 29 5 69 11 88 14 285 42 807 229 911 326 43 40 69 104
69 170 0 106 -91 341 -157 405 -41 40 -92 59 -137 52 -17 -3 -78 -27 -136 -55
-243 -116 -489 -200 -660 -226 -19 -3 -46 -8 -60 -12 -59 -14 -316 -13 -385 2
-150 32 -292 130 -357 247 -28 50 -63 149 -73 210 -7 41 -8 210 -1 242 2 11 7
43 10 70 16 115 99 316 174 420 73 100 183 201 282 257 107 62 242 92 405 92
142 0 218 -18 300 -71 132 -85 192 -244 160 -422 -13 -73 34 -131 121 -150
126 -29 414 -17 508 20 81 32 129 99 141 196 4 26 8 55 10 63 3 8 7 32 11 54
3 21 8 48 10 60 2 11 8 46 14 76 5 30 14 80 19 110 11 66 19 107 31 180 16 95
20 114 24 136 2 12 7 39 10 60 4 22 13 74 21 118 43 225 -5 265 -310 260 -163
-2 -239 -19 -302 -67 -55 -41 -76 -97 -96 -254 -5 -39 -14 -35 -38 14 -65 137
-279 268 -489 299 -45 6 -296 14 -302 9z"/>
</g>
</svg>
