<?xml version="1.0" encoding="UTF-8" standalone="no"?>
<!DOCTYPE svg PUBLIC "-//W3C//DTD SVG 1.1//EN" "http://www.w3.org/Graphics/SVG/1.1/DTD/svg11.dtd">
<svg width="100%" height="100%" viewBox="0 0 1920 1920" version="1.1" xmlns="http://www.w3.org/2000/svg" xmlns:xlink="http://www.w3.org/1999/xlink" xml:space="preserve" xmlns:serif="http://www.serif.com/" style="fill-rule:evenodd;clip-rule:evenodd;stroke-linejoin:round;stroke-miterlimit:2;">
    <g id="L2" transform="matrix(1,0,0,1,0,50)">
        <path d="M1733.71,1485.81L1733.71,1342.69L1740.85,1342.69L1740.85,1327.74L1752.75,1327.74L1752.75,1324L1757.17,1324L1757.17,1315.5L1764.65,1315.5L1764.65,1311.76L1780.28,1311.76L1780.28,1315.5L1784.02,1315.5L1784.02,1342.69L1788.1,1342.69L1788.1,1423.76L1792.52,1423.76L1792.52,1377.71L1830.93,1377.71L1830.93,1465.75L1836.37,1465.75L1836.37,1441.96L1873.09,1441.96L1873.09,1465.75L1920,1465.75L1920,2140.65L-0,2140.65L-0,1485.81L24.136,1485.81L24.136,1411.7L53.711,1411.7L53.711,1485.81L57.45,1485.81L57.45,1389.61L95.864,1389.61L95.864,1485.81L100.283,1485.81L100.283,1299.52L108.102,1299.52L108.102,1292.38L158.074,1292.38L158.074,1299.52L162.493,1299.52L162.493,1485.81L177.11,1485.81L177.11,1377.37L220.963,1377.37L220.963,1485.81L309.008,1485.81L309.008,1233.23L328.725,1233.23L328.725,1225.07L375.297,1225.07L375.297,1485.81L403.173,1485.81L403.173,1244.45L441.926,1244.45L441.926,1485.81L530.652,1485.81L530.652,1307.34L576.204,1307.34L576.204,1485.81L580.963,1485.81L580.963,1268.92L610.878,1268.92L610.878,1485.81L622.096,1485.81L622.096,1276.4L645.892,1276.4L645.892,1485.81L649.972,1485.81L649.972,1353.23L673.768,1353.23L673.768,1287.28L708.442,1287.28L708.442,1265.53L753.654,1265.53L753.654,1338.61L765.212,1338.61L765.212,1485.81L769.972,1485.81L769.972,1265.53L793.088,1265.53L793.088,1350.17L807.365,1350.17L807.365,1230.17L864.816,1230.17L864.816,1485.81L943.683,1485.81L943.683,1369.21L994.674,1369.21L994.674,1485.81L1058.92,1485.81L1058.92,1333.85L1109.91,1333.85L1109.91,1485.81L1122.49,1485.81L1122.49,1381.11L1165.67,1381.11L1165.67,1485.81L1186.74,1485.81L1186.74,1342.01L1237.73,1342.01L1237.73,1485.81L1242.83,1485.81L1242.83,1480.71L1250.99,1480.71L1250.99,1442.98L1261.87,1442.98L1261.87,1408.3L1280.23,1408.3L1280.23,1485.81L1332.58,1485.81L1332.58,1360L1360,1360L1375,1354.27L1400,1354.27L1415,1360L1435.92,1360L1435.92,1434.31L1586.86,1434.31L1586.86,1332.49L1619.83,1332.49L1619.83,1434.99L1630.37,1434.99L1630.37,1446.38L1637.85,1446.38L1637.85,1420.54L1658.92,1420.54L1658.92,1372.95L1690.2,1372.95L1690.2,1485.81L1733.71,1485.81Z" style="fill:rgb(71,64,119);fill-rule:nonzero;"/>
    </g>
</svg>
