<svg viewBox="0 0 1920 1920" xmlns="http://www.w3.org/2000/svg" fill-rule="evenodd" clip-rule="evenodd" stroke-linejoin="round" stroke-miterlimit="2"><path d="M1538.55 1584.29v-141.12h6.43v-14.22h8.8v-15.9h3.39v-7.45h7.78v2.03h5.42v5.42h6.77v-7.45h7.44v2.03h5.76v5.42h6.43v-7.45h7.78v2.03h5.42v5.42h14.89v-7.45h7.78v2.03h5.42v5.42h3.04v15.9h4.06v14.22h3.73V1585h8.31v-25.75h8.12v-4.06h-3.39v-3.39h164.83v3.39h-4.74v4.06h12.52v42.3h49.75v10.16h35.2v655.98H.508v-662.41h30.121v6.43h5.077v-32.83h57.536v-3.39h1.353v-1.69h8.123v1.69h5.754v-5.75h11.507v5.75h22.676v3.39h28.768v-3.73h28.767v3.73h18.276v-249.44h10.154v-53.13l6.43-6.77v-19.63l6.769-6.77h64.643l6.769 6.77v19.63l6.769 6.77v53.13h9.815v175.66h30.122v62.27h25.044v16.92h5.416v-27.07h26.398v-271.77l12.184-12.19h74.458l11.846 12.19v298.84h5.077v-50.09h39.936v50.09h7.107v-129.28h10.492v-5.08h58.551v134.36h12.861v-32.49h13.877v-112.36h10.83v-5.42h68.704v98.83h6.769v30.46h16.245v-17.26h32.491V1403.9h9.477v-7.44h13.199v-9.48h23.353v9.48h3.723v-3.39h15.23v3.39h7.784v-7.45h27.414v7.45h38.244v7.44H951.2v180.39h7.785v-29.78h16.583v-219.99h11.169v-11.17h15.573v-1.69h18.95v-1.35h7.78v2.7h7.79v4.07h19.29v7.44h18.61v14.89h19.63v234.88h15.57v-50.76h13.54v-190.55h9.14v-12.52h4.06v-2.37h4.06v2.37h4.06v-1.02h4.4v1.02h40.95v12.52h19.63v241.31h5.08v-22.33h29.44v49.75h4.74v-2.03h6.77v-27.42h28.09v-33.16h29.78v45.01h21.67v17.6h6.43v-88.34l7.78-8.12h7.45v-3.72h2.03l3.72-5.76h3.05l3.72 5.76h2.71v3.72h7.44l7.79 8.12v88.34h8.12v-44.34h11.17v-36.21h7.78v-11.51h30.8v-4.4h3.72v4.4h7.45v11.51h8.12v80.55h12.61v-27.42h61.32zm-789.063-16.24v16.24h16.245v-16.24h-16.245zm917.523-8.8h12.19v-4.06h-12.19v4.06zm13.88 0h12.18v-4.06h-12.18v4.06zm13.88 0h12.18v-4.06h-12.18v4.06zm13.87 0h12.19v-4.06h-12.19v4.06zm13.88 0h42.3v-4.06h-42.3v4.06zm44 0h12.18v-4.06h-12.18v4.06zm13.87 0h12.19v-4.06h-12.19v4.06zm13.88 0h12.18v-4.06h-12.18v4.06zm13.87 0h12.19v-4.06h-12.19v4.06z" fill="#37325d"/></svg>