<?xml version="1.0" encoding="UTF-8" standalone="no"?>
<!DOCTYPE svg PUBLIC "-//W3C//DTD SVG 1.1//EN" "http://www.w3.org/Graphics/SVG/1.1/DTD/svg11.dtd">
<svg width="100%" height="100%" viewBox="0 0 1920 1920" version="1.1" xmlns="http://www.w3.org/2000/svg" xmlns:xlink="http://www.w3.org/1999/xlink" xml:space="preserve" xmlns:serif="http://www.serif.com/" style="fill-rule:evenodd;clip-rule:evenodd;stroke-linejoin:round;stroke-miterlimit:2;">
    <g id="L1" transform="matrix(1,0,0,1,0,60)">
        <path d="M1538.55,1524.29L1538.55,1383.17L1544.98,1383.17L1544.98,1368.95L1553.78,1368.95L1553.78,1353.05L1557.17,1353.05L1557.17,1345.6L1564.95,1345.6L1564.95,1347.63L1570.37,1347.63L1570.37,1353.05L1577.14,1353.05L1577.14,1345.6L1584.58,1345.6L1584.58,1347.63L1590.34,1347.63L1590.34,1353.05L1596.77,1353.05L1596.77,1345.6L1604.55,1345.6L1604.55,1347.63L1609.97,1347.63L1609.97,1353.05L1624.86,1353.05L1624.86,1345.6L1632.64,1345.6L1632.64,1347.63L1638.06,1347.63L1638.06,1353.05L1641.1,1353.05L1641.1,1368.95L1645.16,1368.95L1645.16,1383.17L1648.89,1383.17L1648.89,1525L1657.2,1525L1657.2,1499.25L1665.32,1499.25L1665.32,1495.19L1661.93,1495.19L1661.93,1491.8L1826.76,1491.8L1826.76,1495.19L1822.02,1495.19L1822.02,1499.25L1834.54,1499.25L1834.54,1541.55L1884.29,1541.55L1884.29,1551.71L1919.49,1551.71L1919.49,2207.69L0.508,2207.69L0.508,1545.28L30.629,1545.28L30.629,1551.71L35.706,1551.71L35.706,1518.88L93.242,1518.88L93.242,1515.49L94.595,1515.49L94.595,1513.8L102.718,1513.8L102.718,1515.49L108.472,1515.49L108.472,1509.74L119.979,1509.74L119.979,1515.49L142.655,1515.49L142.655,1518.88L171.423,1518.88L171.423,1515.15L200.19,1515.15L200.19,1518.88L218.466,1518.88L218.466,1269.44L228.62,1269.44L228.62,1216.31L235.05,1209.54L235.05,1189.91L241.819,1183.14L306.462,1183.14L313.231,1189.91L313.231,1209.54L320,1216.31L320,1269.44L329.815,1269.44L329.815,1445.1L359.937,1445.1L359.937,1507.37L384.981,1507.37L384.981,1524.29L390.397,1524.29L390.397,1497.22L416.795,1497.22L416.795,1225.45L428.979,1213.26L503.437,1213.26L515.283,1225.45L515.283,1524.29L520.36,1524.29L520.36,1474.2L560.296,1474.2L560.296,1524.29L567.403,1524.29L567.403,1395.01L577.895,1395.01L577.895,1389.93L636.446,1389.93L636.446,1524.29L649.307,1524.29L649.307,1491.8L663.184,1491.8L663.184,1379.44L674.014,1379.44L674.014,1374.02L742.718,1374.02L742.718,1472.85L749.487,1472.85L749.487,1503.31L765.732,1503.31L765.732,1486.05L798.223,1486.05L798.223,1343.9L807.7,1343.9L807.7,1336.46L820.899,1336.46L820.899,1326.98L844.252,1326.98L844.252,1336.46L847.975,1336.46L847.975,1333.07L863.205,1333.07L863.205,1336.46L870.989,1336.46L870.989,1329.01L898.403,1329.01L898.403,1336.46L936.647,1336.46L936.647,1343.9L951.2,1343.9L951.2,1524.29L958.985,1524.29L958.985,1494.51L975.568,1494.51L975.568,1274.52L986.737,1274.52L986.737,1263.35L1002.31,1263.35L1002.31,1261.66L1021.26,1261.66L1021.26,1260.31L1029.04,1260.31L1029.04,1263.01L1036.83,1263.01L1036.83,1267.08L1056.12,1267.08L1056.12,1274.52L1074.73,1274.52L1074.73,1289.41L1094.36,1289.41L1094.36,1524.29L1109.93,1524.29L1109.93,1473.53L1123.47,1473.53L1123.47,1282.98L1132.61,1282.98L1132.61,1270.46L1136.67,1270.46L1136.67,1268.09L1140.73,1268.09L1140.73,1270.46L1144.79,1270.46L1144.79,1269.44L1149.19,1269.44L1149.19,1270.46L1190.14,1270.46L1190.14,1282.98L1209.77,1282.98L1209.77,1524.29L1214.85,1524.29L1214.85,1501.96L1244.29,1501.96L1244.29,1551.71L1249.03,1551.71L1249.03,1549.68L1255.8,1549.68L1255.8,1522.26L1283.89,1522.26L1283.89,1489.1L1313.67,1489.1L1313.67,1534.11L1335.34,1534.11L1335.34,1551.71L1341.77,1551.71L1341.77,1463.37L1349.55,1455.25L1357,1455.25L1357,1451.53L1359.03,1451.53L1362.75,1445.77L1365.8,1445.77L1369.52,1451.53L1372.23,1451.53L1372.23,1455.25L1379.67,1455.25L1387.46,1463.37L1387.46,1551.71L1395.58,1551.71L1395.58,1507.37L1406.75,1507.37L1406.75,1471.16L1414.53,1471.16L1414.53,1459.65L1445.33,1459.65L1445.33,1455.25L1449.05,1455.25L1449.05,1459.65L1456.5,1459.65L1456.5,1471.16L1464.62,1471.16L1464.62,1551.71L1477.23,1551.71L1477.23,1524.29L1538.55,1524.29ZM749.487,1508.05L749.487,1524.29L765.732,1524.29L765.732,1508.05L749.487,1508.05ZM1667.01,1499.25L1679.2,1499.25L1679.2,1495.19L1667.01,1495.19L1667.01,1499.25ZM1680.89,1499.25L1693.07,1499.25L1693.07,1495.19L1680.89,1495.19L1680.89,1499.25ZM1694.77,1499.25L1706.95,1499.25L1706.95,1495.19L1694.77,1495.19L1694.77,1499.25ZM1708.64,1499.25L1720.83,1499.25L1720.83,1495.19L1708.64,1495.19L1708.64,1499.25ZM1722.52,1499.25L1764.82,1499.25L1764.82,1495.19L1722.52,1495.19L1722.52,1499.25ZM1766.52,1499.25L1778.7,1499.25L1778.7,1495.19L1766.52,1495.19L1766.52,1499.25ZM1780.39,1499.25L1792.58,1499.25L1792.58,1495.19L1780.39,1495.19L1780.39,1499.25ZM1794.27,1499.25L1806.45,1499.25L1806.45,1495.19L1794.27,1495.19L1794.27,1499.25ZM1808.14,1499.25L1820.33,1499.25L1820.33,1495.19L1808.14,1495.19L1808.14,1499.25Z" style="fill:rgb(55,50,93);"/>
    </g>
</svg>
