<svg viewBox="0 0 1920 1920" xmlns="http://www.w3.org/2000/svg" fill-rule="evenodd" clip-rule="evenodd" stroke-linejoin="round" stroke-miterlimit="2"><path d="M1733.71 1535.81v-143.12h7.14v-14.95h11.9V1374h4.42v-8.5h7.48v-3.74h15.63v3.74h3.74v27.19h4.08v81.07h4.42v-46.05h38.41v88.04h5.44v-23.79h36.72v23.79H1920v674.9H0v-654.84h24.136v-74.11h29.575v74.11h3.739v-96.2h38.414v96.2h4.419v-186.29h7.819v-7.14h49.972v7.14h4.419v186.29h14.617v-108.44h43.853v108.44h88.045v-252.58h19.717v-8.16h46.572v260.74h27.876v-241.36h38.753v241.36h88.726v-178.47h45.552v178.47h4.759v-216.89h29.915v216.89h11.218V1326.4h23.796v209.41h4.08v-132.58h23.796v-65.95h34.674v-21.75h45.212v73.08h11.558v147.2h4.76v-220.28h23.116v84.64h14.277v-120h57.451v255.64h78.867v-116.6h50.991v116.6h64.246v-151.96h50.99v151.96h12.58v-104.7h43.18v104.7h21.07v-143.8h50.99v143.8h5.1v-5.1h8.16v-37.73h10.88v-34.68h18.36v77.51h52.35V1410H1360l15-5.73h25l15 5.73h20.92v74.31h150.94v-101.82h32.97v102.5h10.54v11.39h7.48v-25.84h21.07v-47.59h31.28v112.86h43.51z" fill="#474077" fill-rule="nonzero"/></svg>