<svg viewBox="0 0 1920 1920" xmlns="http://www.w3.org/2000/svg" fill-rule="evenodd" clip-rule="evenodd" stroke-linejoin="round" stroke-miterlimit="2"><path d="M1920 2184.501H0v-712.98h4.807v-58.03h4.12v-11.67h14.764v-7.21h8.24v-5.15h10.644v28.15h19.228v31.93H76.91v-40.17h30.558v40.17h25.064v-71.42h30.215v11.34h16.137v60.08h19.571v-78.97h30.558v78.97h50.815v-105.75h30.215v105.75h48.069v-138.71h22.661v138.71h50.815v-71.42h10.987v-12.01h18.884v7.55h4.12v12.02h18.541v22.32h4.464v-68.67h20.257v-7.9h30.215v76.57h5.15v-104.38h11.33v-15.45h7.211v-3.43h30.558v33.99h27.811v89.27h15.107v-104.72h15.794v-31.59h5.837v-9.616h4.464v-9.957h4.12l7.21-20.945 7.21 20.945h4.121v9.957h2.06v-33.305l41.545-18.197h4.463v29.871h20.258v94.417h23.691v-129.782h8.583v-31.931H810.3v31.931h8.584v127.042h139.743v-23.69h6.523v-19.23h41.89v118.8h78.97v-54.6h41.89v37.43h84.12v-26.44h41.89v11.33h6.52v10.65h8.58v7.55h4.12v-7.55h30.9v7.55h4.12v7.55h7.56v-46.69h7.21v-36.05h15.45v-5.15h42.23v5.15h24.38v35.36h3.78v12.36h22.66v7.9h35.02v19.23h20.25v28.49h95.46v-36.39h46.35v8.58h11.67v18.89h62.49v7.55h52.88v28.84h3.09v-37.08h75.88v-10.99h12.36v10.99h14.42v24.38h19.91v3.43h12.02v-3.43h4.12v11.33h7.21v23.69h8.24v9.61h7.21v703.03z" fill="#574f92" fill-rule="nonzero"/></svg>