<?xml version="1.0" encoding="UTF-8" standalone="no"?>
<!DOCTYPE svg PUBLIC "-//W3C//DTD SVG 1.1//EN" "http://www.w3.org/Graphics/SVG/1.1/DTD/svg11.dtd">
<svg width="100%" height="100%" viewBox="0 0 1920 1920" version="1.1" xmlns="http://www.w3.org/2000/svg" xmlns:xlink="http://www.w3.org/1999/xlink" xml:space="preserve" xmlns:serif="http://www.serif.com/" style="fill-rule:evenodd;clip-rule:evenodd;stroke-linejoin:round;stroke-miterlimit:2;">
    <g id="L3" transform="matrix(1,0,0,1,-4.54747e-13,264.501)">
        <path d="M1920,1920L0,1920L0,1207.02L4.807,1207.02L4.807,1148.99L8.927,1148.99L8.927,1137.32L23.691,1137.32L23.691,1130.11L31.931,1130.11L31.931,1124.96L42.575,1124.96L42.575,1153.11L61.803,1153.11L61.803,1185.04L76.91,1185.04L76.91,1144.87L107.468,1144.87L107.468,1185.04L132.532,1185.04L132.532,1113.62L162.747,1113.62L162.747,1124.96L178.884,1124.96L178.884,1185.04L198.455,1185.04L198.455,1106.07L229.013,1106.07L229.013,1185.04L279.828,1185.04L279.828,1079.29L310.043,1079.29L310.043,1185.04L358.112,1185.04L358.112,1046.33L380.773,1046.33L380.773,1185.04L431.588,1185.04L431.588,1113.62L442.575,1113.62L442.575,1101.61L461.459,1101.61L461.459,1109.16L465.579,1109.16L465.579,1121.18L484.12,1121.18L484.12,1143.5L488.584,1143.5L488.584,1074.83L508.841,1074.83L508.841,1066.93L539.056,1066.93L539.056,1143.5L544.206,1143.5L544.206,1039.12L555.536,1039.12L555.536,1023.67L562.747,1023.67L562.747,1020.24L593.305,1020.24L593.305,1054.23L621.116,1054.23L621.116,1143.5L636.223,1143.5L636.223,1038.78L652.017,1038.78L652.017,1007.19L657.854,1007.19L657.854,997.574L662.318,997.574L662.318,987.617L666.438,987.617L673.648,966.672L680.858,987.617L684.979,987.617L684.979,997.574L687.039,997.574L687.039,964.269L728.584,946.072L733.047,946.072L733.047,975.943L753.305,975.943L753.305,1070.36L776.996,1070.36L776.996,940.578L785.579,940.578L785.579,908.647L810.3,908.647L810.3,940.578L818.884,940.578L818.884,1067.62L958.627,1067.62L958.627,1043.93L965.15,1043.93L965.15,1024.7L1007.04,1024.7L1007.04,1143.5L1086.01,1143.5L1086.01,1088.9L1127.9,1088.9L1127.9,1126.33L1212.02,1126.33L1212.02,1099.89L1253.91,1099.89L1253.91,1111.22L1260.43,1111.22L1260.43,1121.87L1269.01,1121.87L1269.01,1129.42L1273.13,1129.42L1273.13,1121.87L1304.03,1121.87L1304.03,1129.42L1308.15,1129.42L1308.15,1136.97L1315.71,1136.97L1315.71,1090.28L1322.92,1090.28L1322.92,1054.23L1338.37,1054.23L1338.37,1049.08L1380.6,1049.08L1380.6,1054.23L1404.98,1054.23L1404.98,1089.59L1408.76,1089.59L1408.76,1101.95L1431.42,1101.95L1431.42,1109.85L1466.44,1109.85L1466.44,1129.08L1486.69,1129.08L1486.69,1157.57L1582.15,1157.57L1582.15,1121.18L1628.5,1121.18L1628.5,1129.76L1640.17,1129.76L1640.17,1148.65L1702.66,1148.65L1702.66,1156.2L1755.54,1156.2L1755.54,1185.04L1758.63,1185.04L1758.63,1147.96L1834.51,1147.96L1834.51,1136.97L1846.87,1136.97L1846.87,1147.96L1861.29,1147.96L1861.29,1172.34L1881.2,1172.34L1881.2,1175.77L1893.22,1175.77L1893.22,1172.34L1897.34,1172.34L1897.34,1183.67L1904.55,1183.67L1904.55,1207.36L1912.79,1207.36L1912.79,1216.97L1920,1216.97L1920,1920Z" style="fill:rgb(87,79,146);fill-rule:nonzero;"/>
    </g>
</svg>
