<svg viewBox="0 0 1920 1920" xmlns="http://www.w3.org/2000/svg" fill-rule="evenodd" clip-rule="evenodd" stroke-linejoin="round" stroke-miterlimit="2"><path d="M-.51 2721.047h1920V1360.501h-42.389v33.078h-6.861v-7.841h-4.165v-39.694h-42.144v-10.536h-2.695v-4.9h-8.576v2.695h-21.072v-14.701h-48.27s-1.96 22.052 0 22.787c1.961.49-46.309 0-46.309 0v9.311h-32.588v-33.568h-21.072v-7.596h-10.046v-10.291h-5.88v-61.256h-.49c-1.716-8.576-10.046-14.946-20.337-14.946s-18.622 6.37-20.337 14.946h-.98v53.905h-6.126v8.331h-7.351v46.799h-10.291v9.556h-24.257v-96.049h-10.291v-76.692l-8.086-4.655v-54.64h-5.635v-17.397h-6.126v-36.018h-2.205v47.534h-9.556v-63.706h-1.715v56.355h-4.41v-22.542h-3.676v35.039h-6.37v55.375l-8.086 4.655v75.222h-12.006v102.175h-14.211l-6.861-6.861-6.861 6.861h-7.35v-9.801l-6.861-6.861h-36.999l-5.635 5.636h-6.126v-82.573l-9.801-9.801v-23.277h-3.185v21.562h-17.397v-29.403h-3.43v25.728l-13.476 13.476v40.184h-24.257v4.41h-18.867v43.369h-8.576v-30.873h-12.741l-10.536 10.536v-67.626l-24.502-6.616h-24.748v5.146h-36.753v99.724l-25.728-10.046v-18.867h-27.197v-81.347h-15.192v-5.146h-18.376v-7.35h-17.152v6.615h-15.191v34.793h-17.397l-11.026 11.026h-30.383v-8.085h-36.753v9.801H911.47v16.661h-8.09v-21.317h-13.97v5.636h-15.92v16.661h-5.88v15.192h-6.86v40.428h-16.67v-6.86h-3.18v20.827h-23.77v-57.336l-13.23-7.595h-35.04l-5.63 9.556-12.75-12.742h-52.67v47.78h-22.79v46.064l-4.9 8.331h-7.84v-75.467h-36.51v-39.449h-51.46v13.967h-21.56v-9.311h-10.53v8.33h-20.59v-10.781h-43.37v10.536h-21.8v-55.375l-21.81-41.409v-17.886l-2.69-5.391-2.7 5.391v17.641l-22.54 38.959v98.499h-15.19v-208.269l-33.57-9.066-32.1 8.576v219.54H314.1v-27.932h-6.62v-13.477h-76.2l-8.82 8.821h-9.56v-4.655h-5.63v6.125h-10.54v16.172h-53.41l-7.35-19.602h-10.54v-7.106h-14.7v-20.092h-10.54v12.252H85.74v52.189H60.5v10.046H43.59v-34.058h-8.33v-41.899H16.89v16.907h-3.92v-17.887H-.51v1419.352z" fill="#6960a9" fill-rule="nonzero"/></svg>