<?xml version="1.0" encoding="UTF-8" standalone="no"?>
<!DOCTYPE svg PUBLIC "-//W3C//DTD SVG 1.1//EN" "http://www.w3.org/Graphics/SVG/1.1/DTD/svg11.dtd">
<svg width="100%" height="100%" viewBox="0 0 1920 1920" version="1.1" xmlns="http://www.w3.org/2000/svg" xmlns:xlink="http://www.w3.org/1999/xlink" xml:space="preserve" xmlns:serif="http://www.serif.com/" style="fill-rule:evenodd;clip-rule:evenodd;stroke-linejoin:round;stroke-miterlimit:2;">
    <g id="L4" transform="matrix(-1,0,0,1,1919.49,801.047)">
        <path d="M1920,1920L0,1920L0,559.454L42.389,559.454L42.389,592.532L49.25,592.532L49.25,584.691L53.415,584.691L53.415,544.997L95.559,544.997L95.559,534.461L98.254,534.461L98.254,529.561L106.83,529.561L106.83,532.256L127.902,532.256L127.902,517.555L176.172,517.555C176.172,517.555 178.132,539.607 176.172,540.342C174.211,540.832 222.481,540.342 222.481,540.342L222.481,549.653L255.069,549.653L255.069,516.085L276.141,516.085L276.141,508.489L286.187,508.489L286.187,498.198L292.067,498.198L292.067,436.942L292.557,436.942C294.273,428.366 302.603,421.996 312.894,421.996C323.185,421.996 331.516,428.366 333.231,436.942L334.211,436.942L334.211,490.847L340.337,490.847L340.337,499.178L347.688,499.178L347.688,545.977L357.979,545.977L357.979,555.533L382.236,555.533L382.236,459.484L392.527,459.484L392.527,382.792L400.613,378.137L400.613,323.497L406.248,323.497L406.248,306.1L412.374,306.1L412.374,270.082L414.579,270.082L414.579,317.616L424.135,317.616L424.135,253.91L425.85,253.91L425.85,310.265L430.26,310.265L430.26,287.723L433.936,287.723L433.936,322.762L440.306,322.762L440.306,378.137L448.392,382.792L448.392,458.014L460.398,458.014L460.398,560.189L474.609,560.189L481.47,553.328L488.331,560.189L495.681,560.189L495.681,550.388L502.542,543.527L539.541,543.527L545.176,549.163L551.302,549.163L551.302,466.59L561.103,456.789L561.103,433.512L564.288,433.512L564.288,455.074L581.685,455.074L581.685,425.671L585.115,425.671L585.115,451.399L598.591,464.875L598.591,505.059L622.848,505.059L622.848,509.469L641.715,509.469L641.715,552.838L650.291,552.838L650.291,521.965L663.032,521.965L673.568,532.501L673.568,464.875L698.07,458.259L722.818,458.259L722.818,463.405L759.571,463.405L759.571,563.129L785.299,553.083L785.299,534.216L812.496,534.216L812.496,452.869L827.688,452.869L827.688,447.723L846.064,447.723L846.064,440.373L863.216,440.373L863.216,446.988L878.407,446.988L878.407,481.781L895.804,481.781L906.83,492.807L937.213,492.807L937.213,484.722L973.966,484.722L973.966,494.523L1008.02,494.523L1008.02,511.184L1016.11,511.184L1016.11,489.867L1030.08,489.867L1030.08,495.503L1046,495.503L1046,512.164L1051.88,512.164L1051.88,527.356L1058.74,527.356L1058.74,567.784L1075.41,567.784L1075.41,560.924L1078.59,560.924L1078.59,581.751L1102.36,581.751L1102.36,524.415L1115.59,516.82L1150.63,516.82L1156.26,526.376L1169.01,513.634L1221.68,513.634L1221.68,561.414L1244.47,561.414L1244.47,607.478L1249.37,615.809L1257.21,615.809L1257.21,540.342L1293.72,540.342L1293.72,500.893L1345.18,500.893L1345.18,514.86L1366.74,514.86L1366.74,505.549L1377.27,505.549L1377.27,513.879L1397.86,513.879L1397.86,503.098L1441.23,503.098L1441.23,513.634L1463.03,513.634L1463.03,458.259L1484.84,416.85L1484.84,398.964L1487.53,393.573L1490.23,398.964L1490.23,416.605L1512.77,455.564L1512.77,554.063L1527.96,554.063L1527.96,345.794L1561.53,336.728L1593.63,345.304L1593.63,564.844L1605.39,564.844L1605.39,536.912L1612.01,536.912L1612.01,523.435L1688.21,523.435L1697.03,532.256L1706.59,532.256L1706.59,527.601L1712.22,527.601L1712.22,533.726L1722.76,533.726L1722.76,549.898L1776.17,549.898L1783.52,530.296L1794.06,530.296L1794.06,523.19L1808.76,523.19L1808.76,503.098L1819.3,503.098L1819.3,515.35L1833.75,515.35L1833.75,567.539L1858.99,567.539L1858.99,577.585L1875.9,577.585L1875.9,543.527L1884.23,543.527L1884.23,501.628L1902.6,501.628L1902.6,518.535L1906.52,518.535L1906.52,500.648L1920,500.648L1920,1920Z" style="fill:rgb(105,96,169);fill-rule:nonzero;"/>
    </g>
</svg>
